<svg width="50" height="50" viewBox="0 0 50 50" fill="none" xmlns="http://www.w3.org/2000/svg">
<path d="M0 25C-4.32265e-07 29.9445 1.46622 34.778 4.21326 38.8893C6.96029 43.0005 10.8648 46.2048 15.4329 48.097C20.0011 49.9892 25.0277 50.4843 29.8773 49.5196C34.7268 48.555 39.1814 46.174 42.6777 42.6777C46.174 39.1814 48.555 34.7268 49.5196 29.8773C50.4843 25.0277 49.9892 20.0011 48.097 15.4329C46.2048 10.8648 43.0005 6.9603 38.8893 4.21326C34.778 1.46623 29.9445 3.73302e-07 25 0V6.25C28.7084 6.25 32.3335 7.34967 35.4169 9.40995C38.5004 11.4702 40.9036 14.3986 42.3227 17.8247C43.7419 21.2508 44.1132 25.0208 43.3897 28.6579C42.6663 32.2951 40.8805 35.636 38.2583 38.2583C35.636 40.8805 32.2951 42.6663 28.6579 43.3897C25.0208 44.1132 21.2508 43.7419 17.8247 42.3227C14.3986 40.9036 11.4702 38.5004 9.40994 35.4169C7.34967 32.3335 6.25 28.7084 6.25 25H0Z" fill="#FBFBFB"/>
<path d="M25 0C21.717 -3.91499e-08 18.4661 0.646644 15.4329 1.90301C12.3998 3.15938 9.64379 5.00087 7.32233 7.32233C5.00086 9.6438 3.15938 12.3998 1.90301 15.4329C0.646643 18.4661 -4.95726e-07 21.717 0 25L6.25 25C6.25 22.5377 6.73498 20.0995 7.67726 17.8247C8.61953 15.5498 10.0006 13.4828 11.7417 11.7417C13.4828 10.0007 15.5498 8.61953 17.8247 7.67726C20.0995 6.73498 22.5377 6.25 25 6.25V0Z" fill="black" fill-opacity="0.7"/>
</svg>
